<?xml version="1.0" encoding="utf-8"?>
<!-- Generator: Adobe Illustrator 21.0.0, SVG Export Plug-In . SVG Version: 6.00 Build 0)  -->
<svg version="1.1" id="Layer_1" xmlns="http://www.w3.org/2000/svg" xmlns:xlink="http://www.w3.org/1999/xlink" x="0px" y="0px"
	 viewBox="0 0 183.3 207.4" style="enable-background:new 0 0 183.3 207.4;" xml:space="preserve">
<style type="text/css">
	.st0{fill:#19AF09;}
	.st1{fill:#00A3F0;}
	.st2{fill:#00CFFF;}
	.st3{fill:#FFDA00;}
	.st4{fill:#FF5B00;}
	.st5{fill:#FF9100;}
	.st6{fill:#E09DC7;}
	.st7{fill:#4BD2F7;}
	.st8{fill:#00B7EF;}
	.st9{fill:#FF2C2C;}
	.st10{fill:#FF5252;}
	.st11{fill:#FF0019;}
	.st12{fill:#5DBA20;}
	.st13{fill:#D37B13;}
	.st14{fill:#8BB721;}
	.st15{fill:#24E0FF;}
	.st16{fill:#E86BBE;}
	.st17{fill:#4ADDC0;}
</style>
<path class="st0" d="M88.3,119.6l0.4,0.9l0.4-0.9c0.4-0.8,0.7-1.4,1-2.1c0,0,1.4-5,2.2-9.7l0.1-0.3l-8.1-4.8l0,0.9
	c0.1,4.8,1.1,9.5,3,13.9C87.6,118.1,87.9,118.8,88.3,119.6z"/>
<path class="st1" d="M92.2,95L92.2,95c-0.2-1.2-1.5-6.9-2.9-9.5l-0.5-0.8l-0.4,0.8c-1.8,3.6-3,7.4-3.6,11.3l-0.1,0.3l8.2,4.9l0-0.9
	C92.8,99,92.6,96.9,92.2,95z"/>
<path class="st2" d="M122,141.3c-2,1.6-3.8,3.3-5.6,5.1c-13.7,13.5-22.7,31.9-24,52.3c0.1,0.9,0.1,1.7,0.1,2.6c2-0.1,4-0.2,5.9-0.4
	c1-38.9,32-70.6,71.5-72.7c0.1-1.6,0.2-3.3,0.3-4.9C152,123.9,135.3,130.6,122,141.3z"/>
<path class="st3" d="M116.7,196.8c5.4-1.9,10.5-4.4,15.2-7.3l-11.8-6.4C118.4,187.4,117.3,192,116.7,196.8z"/>
<path class="st4" d="M152,171.9c2.8-3.4,5.3-7.1,7.5-10.9l-20.2,3.7L152,171.9z"/>
<path class="st5" d="M104.5,200c2-0.4,4-0.8,6-1.3c2.5-30.7,26.6-55.1,57.3-57.8c0.6-2.2,1-4.4,1.4-6.6
	C133.7,136.8,105.9,165.1,104.5,200z"/>
<path class="st6" d="M163,154.3c1.1-2.3,2-4.7,2.9-7.2c-10.5,1.4-20,5.6-27.9,11.8L163,154.3z"/>
<path class="st7" d="M122.6,177.5l14.5,7.9c0.1,0.1,0.3,0.2,0.4,0.3c3.7-2.8,7.2-5.9,10.5-9.2l-17.8-10.1
	C127.2,169.8,124.7,173.5,122.6,177.5z"/>
<path class="st8" d="M97.1,161.9c1.1-2,2.3-3.9,3.5-5.8H78.2c1.2,1.9,2.4,3.8,3.5,5.8H97.1z"/>
<path class="st9" d="M36.9,155.8H17.2c3.3,6.7,7.5,13,12.4,18.5c0.2-0.1,0.5-0.1,0.7-0.1h25.1L36.9,155.8z"/>
<path class="st10" d="M9.5,128.4c0.7,7.5,2.4,14.6,5,21.4h16.3L9.5,128.4z"/>
<path class="st0" d="M66,176.4l20.2,20.2c-1.6-17.8-9-34-20.2-46.6V176.4z"/>
<path class="st1" d="M84.8,167.9c1.9,4.1,3.4,8.3,4.6,12.7c1.2-4.4,2.8-8.6,4.6-12.7H84.8z"/>
<path class="st11" d="M35.4,180.2C48,191.8,64.2,199.4,82.1,201l-20.8-20.8H35.4z"/>
<path class="st12" d="M56.1,140.8c-4.7-3.7-9.8-7-15.2-9.6v20.1L60,170.4v-23.9v-2.5C58.7,142.9,57.5,141.8,56.1,140.8z"/>
<path class="st13" d="M107.3,144.1H70.2h-1.5c0.1,0.1,0.2,0.3,0.4,0.4c1.7,1.8,3.3,3.7,4.9,5.6h31c1.5-1.8,3-3.6,4.6-5.3
	c0.2-0.2,0.4-0.5,0.7-0.7H107.3z"/>
<path class="st14" d="M34.9,128.6c-6.8-2.6-14.1-4.4-21.7-5l21.7,21.7V128.6z"/>
<polygon class="st11" points="88.1,131.7 88,131.7 81.9,137.6 81.4,138.1 95.1,138.1 "/>
<path d="M21,62.2c-1.8,3.6-2.6,7.4-2.6,11.4c0,12.1,8.4,22.3,19.7,25c-2.1,1.8-4.1,3.7-5.9,5.9l7.2,2.4c3.6-3.7,7.8-6.7,12.5-8.8
	c1.2-0.4,2.3-0.8,3.5-1.4l0,0c4.2-1.4,8.6-2.2,13.1-2.2c0.7,0,1.4,0,2.1,0.1c0.1,0,0.2,0,0.3,0c-0.1,0-0.2,0-0.3,0
	c0.3-2.3,0.7-4.5,1.4-6.6c0-0.1,0.1-0.2,0.1-0.3c-0.3,0-0.6,0-0.9,0c-0.1,0-0.2,0-0.2,0c-9.4-1-16.8-9-16.8-18.7h-7
	c0,8.1,3.8,15.3,9.6,20.1c-2.5,0.6-4.9,1.5-7.3,2.5c-1.7,0.5-3.5,0.7-5.3,0.7c-10.3,0-18.8-8.4-18.8-18.7c0-2.9,0.6-5.7,1.9-8.3
	L21,62.2z"/>
<path d="M150.6,65.3c1.3,2.6,1.9,5.4,1.9,8.3c0,10.3-8.4,18.7-18.8,18.7c-1.8,0-3.6-0.3-5.3-0.7c-2.4-1-4.8-1.9-7.3-2.5
	c5.9-4.7,9.6-12,9.6-20.1h-7c0,9.7-7.4,17.7-16.8,18.7c-0.1,0-0.2,0-0.2,0c-0.4,0-0.8,0.1-1.2,0.1c0.2,0.6,0.4,1.2,0.5,1.8
	c0.5,1.7,0.8,3.4,1,5.2c0,0,0,0,0,0c0,0,0,0,0,0c0.8,0,1.6-0.1,2.4-0.1c4.5,0,8.9,0.8,13.1,2.2l0,0c1.1,0.5,2.3,1,3.5,1.4
	c4.6,2.1,8.9,5,12.5,8.8l7.2-2.4c-1.8-2.1-3.8-4.1-5.9-5.9c11.3-2.7,19.7-12.9,19.7-25c0-4-0.9-7.8-2.6-11.4L150.6,65.3z"/>
<path d="M175.3,118.6c-0.5-0.8-1.5-1.4-2.5-1.4c-21.5,0-41.2,7.9-56.3,20.9H109c-6-2.5-13.1-6.8-16.6-11.5l-0.2-0.3l0.2-0.3
	c4.4-7,6.8-15.2,6.8-23.5c0-4.9-0.8-9.6-2.3-14.2c-0.3-1-0.7-2-1.2-3.2l0,0c0-0.1-0.1-0.2-0.1-0.3c-1.6-3.8-2.4-5.2-2.8-5.6L92.4,79
	l0.3-0.3c7.2-9,17.9-14.2,29.3-14.4l0.5,0c13.2-0.1,25.8-5.8,34.7-15.7l-5.2-3.1c-6.2,6.6-14.5,10.9-23.4,12.3l-1.5,0.2l1.1-1.1
	c5.8-5.8,9.1-13.5,9.1-21.6c0-4.6-1-9-2.9-13.1l-5.4,2.7c1.5,3.3,2.3,6.8,2.3,10.4c0,13.5-11,24.4-24.4,24.4c-0.7,0-1.3,0-2.1-0.1
	l-0.6-0.1l0.2-0.6c0.8-2.9,1.4-6,1.6-9c1.1-9.3,8.2-16.6,17.3-18.1c-0.4-2-1-3.9-1.9-5.8c-6.3,1.2-11.9,4.7-15.9,9.7l-0.6,0.8
	l-0.3-1c-1.3-5.1-3.5-9.9-6.5-14.2c-1.8,0.8-3.6,1.7-5.3,2.9c4.7,6.5,7.2,14.4,7.2,22.4c0,0.8,0,1.6-0.1,2.5l0,0
	c-0.2,3.4-0.9,6.8-2,10l-1.2,3c-0.9,2.1-2.1,4.1-3.3,6l-0.2,0.4l-0.4-0.2c-7.7-4-13.3-11.1-15.3-19.5c-0.1-1.1-0.3-2.2-0.6-3.2
	c-0.2-1.4-0.3-2.6-0.3-3.8c0-13.7,9.2-25.6,22.5-29l-1.4-5.8c-13.2,3.3-23.2,13.6-26.2,26.8L71.1,35l-0.6-0.7
	c-3.9-4.2-9.1-7.1-14.8-8.2C55,28,54.5,30,54.2,32c8,1.3,14.5,7.2,16.6,15.1c0.6,4.1,1.9,8,3.8,11.6l0.3,0.6l-0.7,0.1
	c-1.4,0.2-2.6,0.3-3.8,0.3C57,59.7,46,48.8,46,35.3c0-3.6,0.8-7.1,2.3-10.4L43,22.2c-2,4.1-2.9,8.5-2.9,13.1
	c0,8.2,3.2,15.9,9.1,21.6l1.1,1.1l-1.5-0.2c-9-1.4-17.3-5.9-23.6-12.5l-5.2,3.1c8.8,10,21.5,15.8,34.8,15.9l0.5,0
	c11.4,0.2,22.5,5.6,29.6,14.6l0.2,0.3l-0.2,0.3c-4.2,6.9-6.5,14.9-6.5,23c0,6,1.2,11.7,3.5,17.2c0.9,2.1,1.9,4.1,3.1,6l0.2,0.3
	l-0.2,0.3c-4.2,5.3-9.7,9.3-15.8,11.8h-6.5c-0.1,0-0.1,0-0.2,0c-15.2-13-34.8-20.9-56.3-20.9c-1.7,0-3,1.3-3,3c0,0.3,0.1,0.7,0.2,1
	c0.2,47.6,39,86.2,86.6,86.2c47.7,0,86.6-38.8,86.6-86.6C176.3,120,175.9,119.2,175.3,118.6z M84.7,96.8c0.6-3.9,1.8-7.7,3.6-11.3
	l0.4-0.8l0.5,0.8c1.5,2.7,2.8,8.3,2.9,9.5l0,0c0.4,2,0.6,4,0.7,6.1l0,0.9l-8.2-4.9L84.7,96.8z M81.4,138.1l6.7-6.4l0.1,0.1l7,6.4
	H81.4z M92.4,107.5l-0.1,0.3c-0.8,4.6-2.2,9.6-2.2,9.7c-0.3,0.7-0.6,1.3-1,2.1l-0.4,0.9l-0.4-0.9c-0.4-0.8-0.7-1.5-1-2.1
	c-1.8-4.4-2.8-9-3-13.9l0-0.9L92.4,107.5z M70.2,144.1h37.2h2.9c-0.2,0.2-0.4,0.5-0.7,0.7c-1.6,1.7-3.1,3.5-4.6,5.3h-31
	c-1.5-2-3.2-3.8-4.9-5.6c-0.1-0.1-0.2-0.3-0.4-0.4H70.2z M100.6,156.2c-1.2,1.9-2.4,3.8-3.5,5.8H81.7c-1.1-2-2.3-3.9-3.5-5.8H100.6z
	 M40.9,131.2c5.4,2.6,10.5,5.9,15.2,9.6c1.3,1.1,2.6,2.1,3.9,3.3v2.5v23.9l-19.1-19.1V131.2z M34.9,128.6v16.7l-21.7-21.7
	C20.8,124.3,28.1,126,34.9,128.6z M9.5,128.4l21.4,21.4H14.6C12,143.1,10.2,135.9,9.5,128.4z M29.6,174.3
	c-4.9-5.5-9.1-11.8-12.4-18.5h19.7l18.4,18.4H30.2C30,174.2,29.8,174.3,29.6,174.3z M35.4,180.2h26L82.1,201
	C64.2,199.4,48,191.8,35.4,180.2z M66,176.4v-26.3c11.3,12.6,18.7,28.8,20.2,46.6L66,176.4z M89.4,180.6c-1.2-4.4-2.8-8.6-4.6-12.7
	h9.3C92.2,172,90.6,176.2,89.4,180.6z M116.7,196.8c0.6-4.8,1.7-9.4,3.4-13.7l11.8,6.4C127.2,192.4,122.1,194.9,116.7,196.8z
	 M137.5,185.7c-0.1-0.1-0.2-0.2-0.4-0.3l-14.5-7.9c2.1-4,4.6-7.8,7.5-11.1l17.8,10.1C144.7,179.8,141.2,182.9,137.5,185.7z
	 M152,171.9l-12.7-7.2l20.2-3.7C157.3,164.8,154.8,168.5,152,171.9z M163,154.3l-25,4.6c7.9-6.2,17.4-10.4,27.9-11.8
	C165.1,149.5,164.1,151.9,163,154.3z M167.8,140.8c-30.7,2.7-54.9,27.2-57.3,57.8c-2,0.5-4,1-6,1.3c1.4-34.9,29.2-63.3,64.7-65.8
	C168.8,136.5,168.4,138.7,167.8,140.8z M170,128.2c-39.5,2.1-70.5,33.8-71.5,72.7c-2,0.2-3.9,0.3-5.9,0.4c0-0.9-0.1-1.7-0.1-2.6
	c1.3-20.4,10.2-38.8,24-52.3c1.8-1.8,3.7-3.5,5.6-5.1c13.2-10.8,30-17.5,48.2-18C170.2,125,170.1,126.6,170,128.2z"/>
<path d="M13.3,96.8c-0.1,0.1-0.3,0.1-0.4,0.2c-0.4,0.2-0.8,0.4-1.1,0.6c-3.1,1.9-5.2,4.7-6.5,7.8c0.4,0.3,0.7,0.6,1.1,0.9
	c0.1,0.1,0.3,0.2,0.4,0.3c0.3,0.2,0.5,0.3,0.8,0.5c0.2,0.1,0.3,0.2,0.5,0.3c0.2,0.1,0.5,0.3,0.8,0.4c0.2,0.1,0.3,0.2,0.5,0.2
	c0.3,0.1,0.5,0.2,0.8,0.3c0.2,0.1,0.4,0.1,0.5,0.2c0.3,0.1,0.5,0.2,0.8,0.2c0.2,0.1,0.4,0.1,0.5,0.2c0.3,0.1,0.5,0.1,0.8,0.2
	c0.2,0,0.3,0.1,0.5,0.1c0.3,0.1,0.6,0.1,0.9,0.1c0.2,0,0.3,0,0.5,0.1c0.5,0,0.9,0.1,1.4,0.1c0,0,0,0,0,0c0.4,0,0.8,0,1.2,0
	c0.1,0,0.3,0,0.4,0c0.3,0,0.6-0.1,0.8-0.1c0.2,0,0.3-0.1,0.5-0.1c0.3,0,0.5-0.1,0.8-0.2c0.2,0,0.3-0.1,0.5-0.1
	c0.2-0.1,0.5-0.1,0.7-0.2c0.2,0,0.3-0.1,0.5-0.2c0.2-0.1,0.5-0.2,0.7-0.3c0.1-0.1,0.3-0.1,0.4-0.2c0.3-0.1,0.5-0.2,0.8-0.4
	c0.1-0.1,0.3-0.1,0.4-0.2c0.4-0.2,0.8-0.4,1.1-0.6c3-1.9,5.2-4.7,6.5-7.8c-0.4-0.3-0.7-0.6-1.1-0.9c-0.1-0.1-0.3-0.2-0.4-0.3
	c-0.3-0.2-0.5-0.3-0.8-0.5c-0.2-0.1-0.3-0.2-0.5-0.3c-0.2-0.1-0.5-0.3-0.7-0.4c-0.2-0.1-0.3-0.2-0.5-0.2c-0.2-0.1-0.5-0.2-0.7-0.3
	c-0.2-0.1-0.4-0.1-0.5-0.2c-0.3-0.1-0.5-0.2-0.8-0.2c-0.2-0.1-0.4-0.1-0.5-0.2c-0.3-0.1-0.5-0.1-0.8-0.2c-0.2,0-0.4-0.1-0.5-0.1
	c-0.3,0-0.6-0.1-0.9-0.1c-0.2,0-0.3,0-0.5-0.1c-0.4,0-0.9-0.1-1.3-0.1c0,0,0,0,0,0c-0.4,0-0.8,0-1.2,0c-0.1,0-0.3,0-0.4,0
	c-0.3,0-0.6,0.1-0.8,0.1c-0.2,0-0.3,0.1-0.5,0.1c-0.3,0-0.5,0.1-0.8,0.2c-0.2,0-0.3,0.1-0.5,0.1c-0.2,0.1-0.5,0.1-0.7,0.2
	c-0.2,0-0.3,0.1-0.5,0.2c-0.2,0.1-0.5,0.2-0.7,0.3c-0.2,0.1-0.3,0.1-0.5,0.2C13.9,96.6,13.6,96.7,13.3,96.8z M20.6,99.1
	c1.9,0,3.7,0.4,5.4,1.2c-0.9,1.2-2,2.3-3.3,3.1c-2,1.3-4.3,1.9-6.7,1.9c-1.9,0-3.7-0.4-5.4-1.2c0.9-1.2,2-2.3,3.3-3.1
	C16,99.8,18.3,99.1,20.6,99.1z"/>
<path d="M37.2,85.9c0.4,0.2,0.7,0.5,1.1,0.7c0.1,0.1,0.3,0.1,0.4,0.2c0.2,0.1,0.5,0.3,0.8,0.4c0.2,0.1,0.3,0.1,0.5,0.2
	c0.2,0.1,0.5,0.2,0.7,0.3c0.2,0.1,0.3,0.1,0.5,0.2c0.2,0.1,0.4,0.2,0.7,0.2c0.2,0.1,0.4,0.1,0.5,0.1c0.2,0.1,0.4,0.1,0.7,0.2
	c0.2,0,0.4,0.1,0.5,0.1c0.2,0,0.4,0.1,0.7,0.1c0.2,0,0.4,0,0.6,0.1c0.2,0,0.4,0,0.7,0.1c0.2,0,0.4,0,0.6,0c0.1,0,0.2,0,0.3,0
	c0.2,0,0.4,0,0.6,0c2-6.7-0.5-14.3-6.7-18.4c-0.4-0.2-0.7-0.5-1.1-0.7c-0.1-0.1-0.3-0.1-0.4-0.2c-0.3-0.1-0.5-0.3-0.8-0.4
	c-0.2-0.1-0.3-0.1-0.5-0.2c-0.2-0.1-0.5-0.2-0.7-0.3c-0.2-0.1-0.3-0.1-0.5-0.2c-0.2-0.1-0.5-0.2-0.7-0.2c-0.2,0-0.3-0.1-0.5-0.1
	c-0.2-0.1-0.5-0.1-0.7-0.2c-0.2,0-0.4-0.1-0.5-0.1c-0.2,0-0.5-0.1-0.7-0.1c-0.2,0-0.4,0-0.5-0.1c-0.2,0-0.5,0-0.7-0.1
	c-0.2,0-0.4,0-0.5,0c-0.1,0-0.2,0-0.3,0c-0.2,0-0.4,0-0.6,0C28.5,74.3,31,81.8,37.2,85.9z M38,73.6c3.7,2.4,5.7,6.5,5.6,10.8
	c-1.5-0.3-2.9-0.9-4.2-1.8c-3.7-2.4-5.7-6.5-5.6-10.8C35.3,72.1,36.7,72.8,38,73.6z"/>
<path d="M27.2,42c2.8,2.3,6.1,3.6,9.4,3.8c2.7-6.5,1-14.2-4.7-19c-2.8-2.3-6.1-3.6-9.4-3.8C19.8,29.5,21.5,37.3,27.2,42z M25.4,27.6
	c1.4,0.5,2.8,1.2,4,2.2c3.4,2.8,5,7.1,4.4,11.3c-1.5-0.5-2.8-1.2-4-2.2C26.4,36.1,24.8,31.8,25.4,27.6z"/>
<path d="M68,26.7c5.3-4.6,7.3-12.2,4.4-19C71,4.3,68.7,1.7,65.8,0c-5.3,4.6-7.3,12.2-4.4,19C62.8,22.4,65.2,24.9,68,26.7z M66.2,5.4
	c1.1,1.1,1.9,2.4,2.5,3.8c1.7,4.1,1.2,8.6-1.2,12.1c-1.1-1.1-1.9-2.4-2.5-3.8C63.3,13.4,63.8,8.9,66.2,5.4z"/>
<path d="M69.3,102.6C69.3,102.6,69.2,102.6,69.3,102.6c-0.4,0-0.9,0-1.3,0c-0.1,0-0.1,0-0.2,0c-0.4,0-0.7,0.1-1,0.1
	c-0.1,0-0.3,0.1-0.4,0.1c-0.3,0-0.5,0.1-0.8,0.2c-0.2,0-0.3,0.1-0.5,0.1c-0.2,0.1-0.5,0.1-0.7,0.2c-0.2,0.1-0.3,0.1-0.5,0.2
	c-0.2,0.1-0.4,0.2-0.7,0.2c-0.2,0.1-0.3,0.1-0.5,0.2c-0.2,0.1-0.4,0.2-0.6,0.3c-0.2,0.1-0.3,0.2-0.5,0.3c-0.2,0.1-0.4,0.2-0.6,0.3
	c-0.2,0.1-0.3,0.2-0.5,0.3c-0.2,0.1-0.4,0.2-0.6,0.4c-0.2,0.1-0.3,0.2-0.5,0.3c-0.2,0.1-0.4,0.3-0.5,0.4c-0.1,0.1-0.3,0.2-0.4,0.4
	c-0.2,0.2-0.3,0.3-0.5,0.5c-0.1,0.1-0.3,0.3-0.4,0.4c-0.2,0.2-0.3,0.3-0.5,0.5c-0.1,0.1-0.3,0.3-0.4,0.4c-0.2,0.2-0.3,0.4-0.5,0.6
	c-0.1,0.1-0.2,0.3-0.3,0.4c-0.1,0.2-0.3,0.4-0.4,0.6c-0.1,0.1-0.2,0.3-0.3,0.4c-0.1,0.2-0.3,0.5-0.4,0.8c-0.1,0.1-0.1,0.3-0.2,0.4
	c-0.2,0.4-0.4,0.8-0.6,1.2c-1.4,3.3-1.5,6.9-0.7,10.1c0.4,0,0.9,0.1,1.3,0.1c0,0,0,0,0,0c0.4,0,0.8,0,1.2,0c0.1,0,0.1,0,0.2,0
	c0.4,0,0.7-0.1,1.1-0.1c0.1,0,0.3-0.1,0.4-0.1c0.3,0,0.5-0.1,0.8-0.2c0.2,0,0.3-0.1,0.5-0.1c0.2-0.1,0.5-0.1,0.7-0.2
	c0.2-0.1,0.3-0.1,0.5-0.2c0.2-0.1,0.5-0.2,0.7-0.2c0.2-0.1,0.3-0.1,0.5-0.2c0.2-0.1,0.4-0.2,0.6-0.3c0.2-0.1,0.3-0.2,0.5-0.2
	c0.2-0.1,0.4-0.2,0.6-0.3c0.2-0.1,0.3-0.2,0.5-0.3c0.2-0.1,0.4-0.3,0.6-0.4c0.2-0.1,0.3-0.2,0.5-0.3c0.2-0.1,0.4-0.3,0.6-0.4
	c0.1-0.1,0.3-0.2,0.4-0.4c0.2-0.2,0.4-0.3,0.5-0.5c0.1-0.1,0.3-0.3,0.4-0.4c0.2-0.2,0.3-0.3,0.5-0.5c0.1-0.1,0.2-0.3,0.4-0.4
	c0.2-0.2,0.3-0.4,0.5-0.6c0.1-0.1,0.2-0.3,0.3-0.4c0.2-0.2,0.3-0.4,0.4-0.6c0.1-0.1,0.2-0.3,0.3-0.4c0.2-0.2,0.3-0.5,0.4-0.8
	c0.1-0.1,0.1-0.3,0.2-0.4c0.2-0.4,0.4-0.8,0.6-1.2c1.4-3.3,1.5-6.9,0.7-10.1C70.2,102.6,69.7,102.6,69.3,102.6z M66.2,111.3
	c-1.7,4.1-5.2,6.9-9.4,7.6c0-1.5,0.3-3,0.9-4.5c1.7-4.1,5.2-6.9,9.4-7.6C67.1,108.3,66.7,109.8,66.2,111.3z"/>
<path d="M58.1,53.6c0.4,0.2,0.7,0.4,1.1,0.6c0.1,0.1,0.2,0.1,0.4,0.2c0.3,0.1,0.5,0.2,0.8,0.3c0.1,0.1,0.3,0.1,0.4,0.2
	c0.2,0.1,0.5,0.2,0.7,0.3c0.2,0.1,0.3,0.1,0.5,0.1c0.2,0.1,0.5,0.1,0.7,0.2c0.2,0,0.3,0.1,0.5,0.1c0.2,0.1,0.5,0.1,0.7,0.1
	c0.1,0,0.3,0.1,0.4,0.1c0.3,0,0.6,0.1,0.9,0.1c0.1,0,0.2,0,0.3,0c0.4,0,0.8,0,1.2,0c0,0,0,0,0,0c0.4,0,0.9,0,1.3-0.1
	c1.7-6.8-1.1-14.2-7.4-18.1c-0.4-0.2-0.7-0.4-1.1-0.6c-0.1-0.1-0.2-0.1-0.4-0.2c-0.3-0.1-0.5-0.2-0.8-0.3c-0.1-0.1-0.3-0.1-0.4-0.2
	c-0.2-0.1-0.5-0.2-0.7-0.3c-0.2-0.1-0.3-0.1-0.5-0.1c-0.2-0.1-0.5-0.1-0.7-0.2c-0.2,0-0.3-0.1-0.5-0.1c-0.2-0.1-0.5-0.1-0.7-0.1
	c-0.1,0-0.3-0.1-0.4-0.1c-0.3,0-0.6-0.1-0.8-0.1c-0.1,0-0.2,0-0.4,0c-0.4,0-0.8,0-1.2,0c0,0,0,0,0,0c-0.4,0-0.9,0-1.3,0
	C49,42.3,51.8,49.7,58.1,53.6z M58.5,41.2c3.8,2.3,6,6.3,6,10.5c-1.5-0.3-3-0.8-4.3-1.6c-3.8-2.3-6-6.3-6-10.5
	C55.7,39.9,57.2,40.4,58.5,41.2z"/>
<path d="M82.7,51.1c1.8,4.1,4.6,7.3,7.9,9.3c5.5-6,7.1-15.9,3.4-24.3c-1.8-4.1-4.6-7.3-7.9-9.3C80.5,32.9,78.9,42.7,82.7,51.1z
	 M86.8,32.6c1.4,1.4,2.6,3.2,3.4,5.2c2.4,5.5,2.2,12-0.5,16.9c-1.4-1.5-2.6-3.2-3.5-5.2C83.9,44,84.2,37.5,86.8,32.6z"/>
<path d="M69,85.3c0.4,0.2,0.9,0.3,1.3,0.4c0.2,0,0.3,0.1,0.5,0.1c0.3,0.1,0.6,0.1,0.9,0.2c0.2,0,0.4,0,0.5,0.1
	c0.3,0,0.5,0.1,0.8,0.1c0.2,0,0.4,0,0.6,0c0.3,0,0.5,0,0.8,0c0,0,0.1,0,0.1,0c0.2,0,0.4,0,0.6,0c0.2,0,0.4,0,0.5,0
	c0.2,0,0.5,0,0.7-0.1c0.2,0,0.3,0,0.5-0.1c0.3,0,0.5-0.1,0.8-0.1c0.1,0,0.3,0,0.4-0.1c0.4-0.1,0.8-0.2,1.2-0.3
	c0.2-7-4.1-13.7-11.1-16.1c-0.4-0.2-0.9-0.3-1.3-0.4c-0.2,0-0.3-0.1-0.5-0.1c-0.3-0.1-0.6-0.1-0.8-0.2c-0.2,0-0.4,0-0.6-0.1
	c-0.3,0-0.5-0.1-0.8-0.1c-0.2,0-0.4,0-0.6,0c-0.2,0-0.5,0-0.7,0c0,0-0.1,0-0.1,0c-0.2,0-0.4,0-0.6,0c-0.2,0-0.3,0-0.5,0
	c-0.3,0-0.5,0-0.8,0.1c-0.2,0-0.3,0-0.5,0.1c-0.3,0-0.6,0.1-0.8,0.1c-0.1,0-0.3,0-0.4,0.1c-0.4,0.1-0.8,0.2-1.2,0.3
	C57.7,76.3,62,82.9,69,85.3z M62.7,72.5c1.4,0,2.8,0.2,4.1,0.7c4.2,1.5,7.2,4.9,8.1,9c-0.1,0-0.3,0-0.4,0c-1.4,0-2.8-0.2-4.1-0.7
	c-4.2-1.5-7.1-4.9-8.1-9C62.4,72.5,62.6,72.5,62.7,72.5z"/>
<path d="M153,36.6c3.9-6.3,3-14.2-1.7-19.5c-3.1,1.3-5.8,3.5-7.7,6.6c-3.9,6.3-3,14.2,1.7,19.5C148.3,41.9,151.1,39.7,153,36.6z
	 M147,25.8c0.8-1.3,1.8-2.5,3.1-3.4c1.9,3.8,1.8,8.3-0.5,12.1c-0.8,1.3-1.8,2.5-3.1,3.4C144.6,34.1,144.7,29.6,147,25.8z"/>
<path d="M119.4,13.6c0.6-3.6-0.1-7-1.6-10c-5.1,0.8-9.5,3.9-12,8.4c-0.9,1.6-1.5,3.5-1.8,5.4c-0.1,0.4-0.1,0.8-0.1,1.2
	c-0.3,3.1,0.4,6.1,1.8,8.8C112.5,26.3,118.2,20.9,119.4,13.6z M107.7,18.9c0-0.3,0.1-0.7,0.1-0.9c0.2-1.4,0.7-2.8,1.4-4.1
	c1.4-2.5,3.5-4.4,6-5.5c0.3,1.5,0.4,3,0.1,4.6c-0.7,4.4-3.5,7.9-7.4,9.6C107.7,21.4,107.6,20.1,107.7,18.9z"/>
<path d="M122.1,35.6c-0.2,0-0.3,0-0.5,0.1c-0.2,0-0.5,0.1-0.7,0.1c-0.2,0-0.3,0.1-0.5,0.1c-0.2,0.1-0.5,0.1-0.7,0.2
	c-0.2,0-0.3,0.1-0.5,0.1c-0.2,0.1-0.5,0.2-0.7,0.3c-0.1,0.1-0.3,0.1-0.4,0.2c-0.3,0.1-0.5,0.2-0.8,0.3c-0.1,0.1-0.3,0.1-0.4,0.2
	c-0.4,0.2-0.7,0.4-1.1,0.6c-6.3,3.9-9.1,11.3-7.4,18.1c0.4,0,0.9,0,1.3,0.1c0,0,0,0,0,0c0.4,0,0.8,0,1.2,0c0.1,0,0.2,0,0.3,0
	c0.3,0,0.6-0.1,0.9-0.1c0.1,0,0.3,0,0.4-0.1c0.2,0,0.5-0.1,0.7-0.1c0.2,0,0.3-0.1,0.5-0.1c0.2-0.1,0.5-0.1,0.7-0.2
	c0.2,0,0.3-0.1,0.5-0.1c0.2-0.1,0.5-0.2,0.7-0.3c0.1-0.1,0.3-0.1,0.4-0.2c0.3-0.1,0.5-0.2,0.8-0.3c0.1-0.1,0.2-0.1,0.4-0.2
	c0.4-0.2,0.7-0.4,1.1-0.6c6.3-3.9,9.1-11.3,7.4-18.1c-0.4,0-0.9,0-1.3,0c0,0,0,0,0,0c-0.4,0-0.8,0-1.2,0c-0.1,0-0.2,0-0.4,0
	C122.7,35.5,122.4,35.6,122.1,35.6z M116.3,50.1c-1.3,0.8-2.8,1.4-4.3,1.6c0-4.2,2.2-8.2,6-10.5c1.3-0.8,2.8-1.4,4.3-1.6
	C122.2,43.9,120,47.8,116.3,50.1z"/>
<path d="M107.7,111.9c0.1,0.1,0.2,0.2,0.2,0.3c0.2,0.2,0.3,0.4,0.5,0.6c0.1,0.1,0.2,0.2,0.3,0.3c0.2,0.2,0.3,0.3,0.5,0.5
	c0.1,0.1,0.2,0.2,0.3,0.3c0.2,0.1,0.3,0.3,0.5,0.4c0.1,0.1,0.2,0.2,0.3,0.3c0.2,0.1,0.3,0.3,0.5,0.4c0.1,0.1,0.2,0.2,0.4,0.3
	c0.2,0.1,0.3,0.2,0.5,0.4c0.1,0.1,0.2,0.2,0.4,0.2c0.2,0.1,0.4,0.2,0.6,0.3c0.1,0.1,0.2,0.1,0.4,0.2c0.2,0.1,0.4,0.2,0.6,0.3
	c0.1,0.1,0.2,0.1,0.3,0.2c0.3,0.1,0.5,0.2,0.8,0.3c0.1,0,0.1,0.1,0.2,0.1c0.3,0.1,0.7,0.2,1,0.3c0.1,0,0.2,0,0.3,0.1
	c0.3,0.1,0.5,0.1,0.8,0.2c0.1,0,0.3,0.1,0.4,0.1c0.2,0,0.4,0.1,0.7,0.1c0.1,0,0.3,0,0.4,0.1c0.2,0,0.4,0.1,0.6,0.1
	c0.1,0,0.3,0,0.4,0c0.2,0,0.4,0,0.6,0c0.1,0,0.3,0,0.4,0c0.1,0,0.2,0,0.3,0c0.1,0,0.1,0,0.2,0c0.5,0,1,0,1.5-0.1
	c0.6-0.1,1.1-0.1,1.7-0.3c0.4-0.1,0.8-0.2,1.2-0.3c0.1-3.3-0.7-6.8-2.7-9.8c-0.2-0.3-0.5-0.7-0.7-1c-0.1-0.1-0.2-0.2-0.2-0.3
	c-0.2-0.2-0.4-0.4-0.6-0.7c-0.1-0.1-0.2-0.2-0.3-0.3c-0.2-0.2-0.4-0.4-0.7-0.7c-0.1-0.1-0.1-0.1-0.2-0.2c-0.3-0.3-0.6-0.5-0.9-0.8
	c-0.1-0.1-0.2-0.1-0.2-0.2c-0.2-0.2-0.5-0.4-0.7-0.5c-0.1-0.1-0.2-0.1-0.3-0.2c-0.2-0.2-0.5-0.3-0.7-0.4c-0.1-0.1-0.2-0.1-0.3-0.2
	c-0.3-0.2-0.7-0.4-1.1-0.5c0,0,0,0,0,0c-0.3-0.2-0.7-0.3-1-0.4c-0.1,0-0.2-0.1-0.3-0.1c-0.3-0.1-0.5-0.2-0.8-0.3
	c-0.1,0-0.2-0.1-0.4-0.1c-0.3-0.1-0.6-0.1-0.9-0.2c-0.1,0-0.2,0-0.2,0c-0.4-0.1-0.8-0.1-1.2-0.2c-0.1,0-0.2,0-0.3,0
	c-0.3,0-0.6-0.1-0.9-0.1c-0.1,0-0.3,0-0.4,0c-0.1,0-0.2,0-0.3,0c-0.1,0-0.3,0-0.4,0c-0.2,0-0.3,0-0.5,0c-0.3,0-0.5,0-0.8,0.1
	c-0.2,0-0.3,0-0.5,0.1c-0.3,0-0.5,0.1-0.8,0.1c-0.1,0-0.3,0-0.4,0.1c-0.4,0.1-0.8,0.2-1.2,0.3c-0.1,3.3,0.7,6.8,2.7,9.8
	C107.2,111.3,107.5,111.6,107.7,111.9z M119.3,110.1c0.9,1.3,1.5,2.7,1.8,4.2c-0.1,0-0.2,0-0.3,0c-4.2,0-8.1-2.1-10.4-5.6
	c-0.9-1.3-1.5-2.7-1.8-4.2c0.1,0,0.2,0,0.3,0C113.1,104.6,117,106.7,119.3,110.1z"/>
<path d="M158.3,96.8c-0.1,0-0.2,0-0.3,0c-0.1,0-0.2,0-0.4,0c-0.2,0-0.4,0-0.6,0c-0.2,0-0.5,0-0.7,0.1c-0.2,0-0.4,0-0.6,0.1
	c-0.2,0-0.5,0.1-0.7,0.1c-0.2,0-0.4,0.1-0.5,0.1c-0.2,0-0.5,0.1-0.7,0.2c-0.2,0-0.4,0.1-0.5,0.1c-0.2,0.1-0.5,0.1-0.7,0.2
	c-0.2,0.1-0.3,0.1-0.5,0.2c-0.2,0.1-0.5,0.2-0.7,0.3c-0.2,0.1-0.3,0.1-0.5,0.2c-0.3,0.1-0.5,0.2-0.8,0.4c-0.1,0.1-0.3,0.1-0.4,0.2
	c-0.4,0.2-0.7,0.4-1.1,0.7c0.9,3.2,2.7,6.2,5.5,8.5c0.4,0.3,0.8,0.6,1.1,0.8c0.1,0.1,0.3,0.2,0.4,0.3c0.3,0.2,0.5,0.3,0.8,0.5
	c0.2,0.1,0.3,0.2,0.5,0.3c0.2,0.1,0.5,0.3,0.7,0.4c0.2,0.1,0.4,0.2,0.5,0.2c0.2,0.1,0.5,0.2,0.7,0.3c0.2,0.1,0.4,0.1,0.6,0.2
	c0.2,0.1,0.5,0.2,0.7,0.2c0.2,0.1,0.4,0.1,0.6,0.1c0.2,0.1,0.5,0.1,0.7,0.2c0.2,0,0.4,0.1,0.6,0.1c0.2,0,0.5,0.1,0.7,0.1
	c0.2,0,0.4,0,0.6,0c0.2,0,0.5,0,0.7,0c0.1,0,0.2,0,0.3,0c0.1,0,0.2,0,0.4,0c0.2,0,0.4,0,0.6,0c0.2,0,0.5,0,0.7-0.1
	c0.2,0,0.4,0,0.5-0.1c0.2,0,0.5-0.1,0.7-0.1c0.2,0,0.4-0.1,0.5-0.1c0.2,0,0.5-0.1,0.7-0.2c0.2,0,0.3-0.1,0.5-0.1
	c0.2-0.1,0.5-0.1,0.7-0.2c0.2-0.1,0.3-0.1,0.5-0.2c0.2-0.1,0.5-0.2,0.7-0.3c0.2-0.1,0.3-0.1,0.5-0.2c0.3-0.1,0.5-0.3,0.8-0.4
	c0.1-0.1,0.2-0.1,0.4-0.2c0.4-0.2,0.7-0.4,1.1-0.7c-0.9-3.2-2.7-6.2-5.5-8.5c-0.4-0.3-0.8-0.6-1.1-0.8c-0.1-0.1-0.3-0.2-0.4-0.3
	c-0.3-0.2-0.5-0.3-0.8-0.5c-0.2-0.1-0.3-0.2-0.5-0.3c-0.2-0.1-0.5-0.3-0.7-0.4c-0.2-0.1-0.4-0.2-0.5-0.2c-0.2-0.1-0.5-0.2-0.7-0.3
	c-0.2-0.1-0.4-0.1-0.6-0.2c-0.2-0.1-0.5-0.2-0.7-0.2c-0.2-0.1-0.4-0.1-0.6-0.1c-0.2-0.1-0.5-0.1-0.7-0.2c-0.2,0-0.4-0.1-0.6-0.1
	c-0.2,0-0.5-0.1-0.7-0.1c-0.2,0-0.4,0-0.6,0C158.7,96.8,158.5,96.8,158.3,96.8z M165.8,103.5c1.2,1,2.2,2.2,3,3.5
	c-1.3,0.4-2.7,0.7-4.1,0.7c-2.9,0-5.6-1-7.8-2.8c-1.2-1-2.2-2.1-3-3.5c1.3-0.4,2.7-0.7,4.1-0.7C160.8,100.8,163.6,101.7,165.8,103.5
	z"/>
<path d="M145.9,65.8c-3.3,0.4-6.6,1.8-9.2,4.3c-5.4,5.1-6.7,12.9-3.6,19.2c3.3-0.4,6.6-1.8,9.2-4.3C147.7,80,148.9,72.2,145.9,65.8z
	 M135.7,84.6c-0.8-4.2,0.5-8.5,3.7-11.5c1.1-1.1,2.4-1.9,3.9-2.5c0.8,4.2-0.5,8.5-3.7,11.5C138.4,83.2,137.1,84,135.7,84.6z"/>
<path d="M104.6,85c0.3,0,0.7,0,1-0.1c0.2,0,0.3,0,0.5,0c0.5-0.1,1-0.1,1.5-0.2c7.2-1.5,12.4-7.5,13.1-14.5c-0.5-0.2-1-0.4-1.4-0.6
	c-0.1,0-0.3-0.1-0.4-0.1c-0.4-0.1-0.8-0.2-1.2-0.3c-0.1,0-0.3-0.1-0.4-0.1c-0.5-0.1-1-0.2-1.5-0.3c-0.1,0-0.2,0-0.3,0
	c-0.4,0-0.9-0.1-1.3-0.1c-0.1,0-0.2,0-0.2,0c-0.1,0-0.2,0-0.3,0c-0.3,0-0.7,0-1,0.1c-0.2,0-0.3,0-0.5,0c-0.5,0.1-1,0.1-1.5,0.2
	c-7.2,1.5-12.4,7.5-13.2,14.5c0.5,0.2,1,0.4,1.4,0.6c0.1,0,0.3,0.1,0.4,0.1c0.4,0.1,0.8,0.2,1.2,0.3c0.1,0,0.3,0.1,0.4,0.1
	c0.5,0.1,1,0.2,1.5,0.3c0.1,0,0.2,0,0.3,0c0.4,0,0.9,0.1,1.3,0.1c0.1,0,0.2,0,0.2,0C104.4,85,104.5,85,104.6,85z M102.2,80.9
	c1.5-4,4.9-7,9.2-7.8c0.8-0.2,1.6-0.2,2.5-0.2c0.7,0,1.4,0.1,2.1,0.2c-1.5,4-4.9,7-9.2,7.8c-0.8,0.2-1.6,0.2-2.5,0.2
	C103.6,81,102.9,81,102.2,80.9z"/>
<path d="M180.9,48.5c-0.4-0.1-0.8-0.2-1.2-0.3c-0.2,0-0.5-0.1-0.7-0.1c-0.4-0.1-0.7-0.1-1.1-0.2c-0.3,0-0.5,0-0.8,0
	c-0.3,0-0.5,0-0.8,0c-0.1,0-0.3,0-0.4,0c-0.1,0-0.2,0-0.3,0c-0.5,0-1.1,0.1-1.6,0.1c-0.1,0-0.2,0-0.3,0c-0.5,0.1-1.1,0.2-1.6,0.3
	c-0.1,0-0.1,0-0.2,0.1c-0.5,0.2-1.1,0.3-1.6,0.5c0,0-0.1,0-0.1,0.1c-0.6,0.2-1.1,0.5-1.6,0.8c-1.6,0.9-3.2,2-4.5,3.5
	c-0.3,0.3-0.5,0.6-0.8,1c-1.9,2.5-3,5.4-3.3,8.3c0.5,0.2,1,0.4,1.5,0.6c0.1,0,0.3,0.1,0.4,0.1c0.4,0.1,0.8,0.2,1.2,0.3
	c0.1,0,0.3,0.1,0.4,0.1c0.5,0.1,1,0.2,1.6,0.2c0.1,0,0.2,0,0.2,0c0.4,0,0.9,0.1,1.3,0.1c0.1,0,0.1,0,0.2,0c0.1,0,0.2,0,0.3,0
	c0.4,0,0.8,0,1.2-0.1c0.1,0,0.3,0,0.4,0c0.5-0.1,1-0.1,1.5-0.2c0.1,0,0.2,0,0.2-0.1c0.4-0.1,0.8-0.2,1.3-0.3c0.2,0,0.3-0.1,0.4-0.1
	c0.4-0.1,0.7-0.3,1.1-0.4c0.1-0.1,0.3-0.1,0.4-0.2c0.5-0.2,0.9-0.4,1.4-0.7c0,0,0.1-0.1,0.1-0.1c0.4-0.2,0.8-0.5,1.2-0.8
	c0.1-0.1,0.3-0.2,0.4-0.3c0.3-0.2,0.6-0.5,0.9-0.7c0.1-0.1,0.2-0.2,0.4-0.3c0.4-0.4,0.8-0.7,1.2-1.2c2.4-2.7,3.8-5.9,4.1-9.3
	c-0.6-0.3-1.1-0.5-1.7-0.7C181.3,48.6,181.1,48.6,180.9,48.5z M176.2,56c-2.4,2.6-5.8,4.1-9.3,4.1c-0.7,0-1.4-0.1-2.1-0.2
	c0.4-1.1,1-2.2,1.8-3.2c0.2-0.3,0.4-0.5,0.6-0.7c1-1.1,2.1-2,3.4-2.7c1.8-1,3.9-1.5,5.9-1.5c0.7,0,1.4,0.1,2.1,0.2
	C178,53.5,177.2,54.8,176.2,56z"/>
<path d="M10.3,80.5c1.9-2.2,3.3-5,3.8-8.1c0.1-0.4,0.1-0.8,0.2-1.2c0.2-2,0-3.9-0.5-5.7c-1.3-4.9-4.9-9-9.7-11
	c-2.2,2.5-3.6,5.8-3.9,9.4C-0.6,71.2,3.8,77.8,10.3,80.5z M4,64.2c0.1-1.5,0.5-3,1.2-4.4c2.2,1.7,3.8,4,4.6,6.7
	c0.4,1.4,0.5,2.9,0.4,4.3c0,0.3-0.1,0.6-0.1,0.9C9.9,73,9.5,74.1,9,75.2C5.6,72.7,3.7,68.6,4,64.2z"/>
<path class="st11" d="M14,101c-1.3,0.8-2.4,1.9-3.3,3.1c1.7,0.8,3.5,1.2,5.4,1.2c2.4,0,4.7-0.7,6.7-1.9c1.3-0.8,2.4-1.9,3.3-3.1
	c-1.7-0.8-3.5-1.2-5.4-1.2C18.3,99.1,16,99.8,14,101z"/>
<path class="st6" d="M39.4,82.6c1.3,0.9,2.7,1.5,4.2,1.8c0.1-4.2-1.9-8.3-5.6-10.8c-1.3-0.9-2.7-1.5-4.2-1.8
	C33.7,76.1,35.7,80.1,39.4,82.6z"/>
<path class="st3" d="M29.8,38.9c1.2,1,2.5,1.8,4,2.2c0.6-4.2-1-8.5-4.4-11.3c-1.2-1-2.5-1.8-4-2.2C24.8,31.8,26.4,36.1,29.8,38.9z"
	/>
<path class="st10" d="M67.6,21.3c2.4-3.5,2.9-8,1.2-12.1c-0.6-1.4-1.5-2.7-2.5-3.8c-2.4,3.5-2.9,8-1.2,12.1
	C65.6,18.9,66.5,20.2,67.6,21.3z"/>
<path class="st10" d="M57.6,114.4c-0.6,1.4-0.9,3-0.9,4.5c4.2-0.7,7.8-3.6,9.4-7.6c0.6-1.4,0.9-3,0.9-4.5
	C62.9,107.5,59.3,110.3,57.6,114.4z"/>
<path class="st15" d="M60.2,50.1c1.3,0.8,2.8,1.4,4.3,1.6c0-4.2-2.2-8.2-6-10.5c-1.3-0.8-2.8-1.4-4.3-1.6
	C54.3,43.9,56.5,47.8,60.2,50.1z"/>
<path class="st3" d="M89.8,54.7c2.7-4.9,2.9-11.4,0.5-16.9c-0.9-2-2-3.7-3.4-5.2c-2.7,4.9-2.9,11.4-0.5,16.9
	C87.2,51.5,88.4,53.3,89.8,54.7z"/>
<path class="st14" d="M70.3,81.6c1.3,0.5,2.7,0.7,4.1,0.7c0.1,0,0.3,0,0.4,0c-0.9-4.1-3.9-7.6-8.1-9c-1.3-0.5-2.7-0.7-4.1-0.7
	c-0.1,0-0.3,0-0.4,0C63.2,76.7,66.2,80.1,70.3,81.6z"/>
<path class="st11" d="M149.5,34.5c2.3-3.8,2.4-8.3,0.5-12.1c-1.2,0.9-2.3,2.1-3.1,3.4c-2.3,3.8-2.4,8.3-0.5,12.1
	C147.7,37,148.7,35.8,149.5,34.5z"/>
<path class="st16" d="M115.4,13c0.2-1.5,0.2-3.1-0.1-4.6c-2.5,1.1-4.7,3-6,5.5c-0.7,1.3-1.2,2.7-1.4,4.1c0,0.3-0.1,0.6-0.1,0.9
	c-0.1,1.2,0,2.4,0.3,3.6C111.9,20.9,114.7,17.3,115.4,13z"/>
<path class="st17" d="M112,51.8c1.5-0.3,3-0.8,4.3-1.6c3.8-2.3,6-6.3,6-10.5c-1.5,0.3-3,0.8-4.3,1.6C114.2,43.5,112,47.5,112,51.8z"
	/>
<path class="st3" d="M120.8,114.3c0.1,0,0.2,0,0.3,0c-0.3-1.5-0.9-2.9-1.8-4.2c-2.3-3.5-6.2-5.6-10.4-5.6c-0.1,0-0.2,0-0.3,0
	c0.3,1.5,0.9,2.9,1.8,4.2C112.7,112.3,116.6,114.3,120.8,114.3z"/>
<path class="st1" d="M158,100.8c-1.4,0-2.8,0.2-4.1,0.7c0.8,1.3,1.8,2.5,3,3.5c2.3,1.8,5,2.8,7.8,2.8c1.4,0,2.8-0.2,4.1-0.7
	c-0.8-1.3-1.8-2.5-3-3.5C163.6,101.7,160.8,100.8,158,100.8z"/>
<path class="st12" d="M143.3,70.6c-1.4,0.6-2.7,1.4-3.9,2.5c-3.2,3-4.6,7.4-3.7,11.5c1.4-0.6,2.7-1.4,3.9-2.5
	C142.7,79.1,144.1,74.8,143.3,70.6z"/>
<path class="st6" d="M106.8,80.8c4.3-0.9,7.7-3.9,9.2-7.8c-0.7-0.1-1.4-0.2-2.1-0.2c-0.8,0-1.7,0.1-2.5,0.2
	c-4.3,0.9-7.8,3.9-9.2,7.8c0.7,0.1,1.4,0.2,2.1,0.2C105.1,81,106,81,106.8,80.8z"/>
<path class="st6" d="M170.5,53.4c-1.3,0.7-2.4,1.6-3.4,2.7c-0.2,0.2-0.4,0.5-0.6,0.7c-0.8,1-1.3,2-1.8,3.2c0.7,0.1,1.4,0.2,2.1,0.2
	c3.5,0,6.9-1.5,9.3-4.1c1-1.2,1.8-2.5,2.4-3.9c-0.7-0.1-1.4-0.2-2.1-0.2C174.4,51.9,172.3,52.4,170.5,53.4z"/>
<path class="st12" d="M9,75.2c0.5-1.1,0.9-2.3,1.1-3.5c0.1-0.3,0.1-0.6,0.1-0.9c0.1-1.4,0-2.9-0.4-4.3c-0.7-2.7-2.4-5.1-4.6-6.7
	c-0.7,1.4-1.1,2.9-1.2,4.4C3.7,68.6,5.6,72.7,9,75.2z"/>
</svg>
